# xmcd
#
# Track frame offsets:
#	150
#	26710
#	40743
#	76200
#	91160
#	128519
#	161531
#	187211
#	210062
#	254790
#	281395
#
# Disc length: 4249 seconds
#
# Revision: 1
# Processed by: cddbd v1.5.2PL0 Copyright (c) Steve Scherf et al.
# Submitted via: audiograbber 1.83.01
#
DISCID=8910970b
DTITLE=Grateful Dead - 73-09-08 Nassau Veterans Memorial Coliseum, Uniondale NY
DYEAR=1900
DGENRE=
TTITLE0=Bertha
TTITLE1=Me and My Uncle
TTITLE2=Sugaree
TTITLE3=Beat It On Down The Line
TTITLE4=Tennessee Jed
TTITLE5=Looks Like Rain
TTITLE6=Brown Eyed Women
TTITLE7=Jack Straw
TTITLE8=Row Jimmy
TTITLE9=WRS Prelude > WRS Part 1 >
TTITLE10=Let It Grow
EXTD=
EXTT0=
EXTT1=
EXTT2=
EXTT3=
EXTT4=
EXTT5=
EXTT6=
EXTT7=
EXTT8=
EXTT9=
EXTT10=
PLAYORDER=
